<?xml version="1.0" encoding="utf-8"?>
<!-- Generator: Adobe Illustrator 25.2.0, SVG Export Plug-In . SVG Version: 6.00 Build 0)  -->
<svg version="1.1" id="Layer_1" xmlns="http://www.w3.org/2000/svg" xmlns:xlink="http://www.w3.org/1999/xlink" x="0px" y="0px"
	 viewBox="0 0 790.3 129" style="enable-background:new 0 0 790.3 129;" xml:space="preserve">
<style type="text/css">
	.st0{fill:#FFFFFF;}
	.st1{fill-rule:evenodd;clip-rule:evenodd;fill:#F3603C;}
	.st2{opacity:0.5;fill-rule:evenodd;clip-rule:evenodd;fill:#F3603C;enable-background:new    ;}
</style>
<g>
	<g>
		<path class="st0" d="M217.3,91.3V46.5c0-8.6,2-15.3,6-20.3c4-4.9,9-7.4,14.9-7.4c11.7,0,17.6,8.6,17.6,25.7v46.8h20.5v-52
			c0-13.1-2.7-22.9-8.2-29.4c-5.4-6.5-13.2-9.7-23.3-9.7c-6.6,0-12.7,1.3-18.2,3.8s-10.2,6.3-13.9,11.1h-0.4
			C207,5.2,198.1,0.2,185.6,0.2c-5.3,0-10.3,1.2-15.2,3.5c-5,2.4-9.3,5.9-12.8,10.2h-0.3V1.5h-20.5v89.7h20.5V46.5
			c0-8.6,2-15.3,6.1-20.3c4-4.9,9.2-7.4,15.5-7.4c11.9,0,17.8,8.6,17.8,25.7v46.8L217.3,91.3L217.3,91.3z M331.8,92.7
			c12.2,0,21.7-4.5,28.5-13.5h0.3v12h19.6V1.5h-20.5v10.8h-0.4c-6.8-8.1-16-12.1-27.7-12.1c-11.7-0.1-22.8,4.7-30.8,13.1
			c-3.8,4.1-6.8,9-9.1,14.8c-2.2,6-3.4,12.3-3.3,18.7c0,6.8,1.1,13.1,3.3,18.9c2.2,5.8,5.2,10.6,9.1,14.6s8.6,7.1,13.8,9.2
			C320.1,91.6,325.9,92.7,331.8,92.7L331.8,92.7L331.8,92.7z M335.1,74c-7.6,0-13.8-2.5-18.6-7.6c-4.8-5.1-7.2-11.6-7.2-19.5
			c0-8.4,2.5-15.2,7.4-20.3c4.9-5.1,11.1-7.7,18.4-7.7s13.3,2.7,18.2,8c4.8,5.4,7.2,12,7.2,20s-2.5,14.5-7.4,19.5
			C348.2,71.4,342.2,74,335.1,74L335.1,74z M482.3,91.3V38.4c0-13-2.9-22.6-8.7-28.9c-5.8-6.3-13.9-9.4-24.2-9.4
			c-5.7,0-11.4,1.2-16.6,3.5s-9.8,5.8-13.4,10.2h-0.3V1.5h-20.5v89.7h20.5V46.1c0-8.6,2.1-15.3,6.3-20.1c4.2-4.8,9.8-7.2,16.9-7.2
			c3.2,0,6,0.4,8.3,1.3c2.3,0.8,4.3,2.2,6.1,4.1c1.7,1.9,3,4.4,3.9,7.7c0.8,3.2,1.3,7.2,1.3,11.9v47.6h20.4V91.3z M537.7,92.7
			c12.2,0,21.7-4.5,28.5-13.5h0.3v12h19.6V1.5h-20.5v10.8h-0.4c-6.8-8.1-16.1-12.1-27.7-12.1c-11.7-0.1-22.8,4.7-30.9,13.1
			c-3.8,4.1-6.8,9-9.1,14.8c-2.2,6-3.4,12.3-3.3,18.7c0,6.8,1.1,13.1,3.3,18.9c2.2,5.8,5.2,10.6,9.1,14.6s8.6,7.1,13.8,9.2
			C526,91.6,531.8,92.7,537.7,92.7L537.7,92.7z M541,74c-7.6,0-13.8-2.5-18.6-7.6s-7.2-11.6-7.2-19.5c0-8.4,2.5-15.2,7.4-20.3
			s11.1-7.7,18.4-7.7c7.3,0,13.3,2.7,18.2,8c4.8,5.4,7.2,12,7.2,20s-2.5,14.5-7.4,19.5S548.1,74,541,74z M644.5,129
			c6.5,0,12.3-0.8,17.5-2.3c5.1-1.5,9.5-3.7,13-6.4c3.5-2.7,6.5-6.1,8.7-10c2.3-4,4-8.4,5-12.9c1-4.7,1.5-9.8,1.5-15.4V1.5h-20.5
			v9.4h-0.4c-3.7-3.5-8-6.3-12.8-8.1c-4.8-1.9-9.9-2.8-15-2.8c-8.2,0-15.5,1.9-22.1,5.8s-11.6,9.3-15.2,16.2
			c-3.6,6.9-5.4,14.7-5.4,23.3c0,8.7,1.9,16.5,5.7,23.3s9,12,15.6,15.6s14.1,5.4,22.4,5.4c11.1,0,20.2-3.7,27.2-11h0.4v9.5
			c0,6.4-2.3,11.6-7,15.8c-4.7,4.2-11.2,6.3-19.7,6.3c-5.8,0-10.9-0.7-15.3-2.2c-4.4-1.4-9.5-3.7-15.2-6.7l-4.8,18.1
			c5,3,10.7,5.3,17,6.9C631.2,128.1,637.8,129,644.5,129L644.5,129z M645.2,70.7c-7.4,0-13.5-2.4-18.3-7.1s-7.2-11-7.2-18.9
			c0-7.6,2.4-13.8,7.1-18.6c4.7-4.8,10.9-7.2,18.5-7.2c7.2,0,13.3,2.4,18.1,7.1c4.8,4.7,7.2,10.9,7.2,18.4c0,7.6-2.4,13.9-7,18.8
			C658.8,68.3,652.7,70.7,645.2,70.7L645.2,70.7L645.2,70.7z M748.9,92.7c8.4,0,15.7-1.5,22.1-4.6c6.4-3.1,11.6-7.2,15.6-12.4
			l-14.3-12.3C766.7,70.5,759.2,74,750,74c-6.6,0-12.1-1.8-16.7-5.5c-4.6-3.6-7.5-8.6-8.8-15h65.3c0.4-2.2,0.5-4.9,0.5-8.2
			c0-8.7-1.8-16.4-5.3-23.3c-3.4-6.7-8.7-12.3-15.2-16.1c-6.6-3.9-14.3-5.8-23-5.8c-5.9,0-11.8,1.1-17.3,3.4
			c-5.4,2.2-10,5.4-13.9,9.4s-6.9,8.9-9.1,14.6c-2.2,5.8-3.3,12-3.3,18.8c0,9.2,2,17.3,6,24.4s9.5,12.5,16.4,16.3
			C732.4,90.8,740.2,92.7,748.9,92.7z M769.6,36.9h-44.8c1.4-5.8,4.2-10.2,8.3-13.3c4.1-3.1,9-4.7,14.7-4.7s10.5,1.6,14.2,4.8
			C765.7,26.9,768.3,31.3,769.6,36.9z"/>
		<g>
			<path class="st1" d="M15.1,55.9c8.4,0,15.1,6.9,15.1,15.5s-6.8,15.5-15.1,15.5C6.7,86.9,0,79.9,0,71.4C0,62.8,6.8,55.9,15.1,55.9
				z M15.1,0c8.4,0,15.1,7,15.1,15.5c0,8.6-6.8,15.5-15.1,15.5C6.7,31,0,24.1,0,15.5C0,7,6.8,0,15.1,0z M69.6,0
				C78,0,84.7,7,84.7,15.5c0,8.6-6.8,15.5-15.1,15.5c-8.4,0-15.1-6.9-15.1-15.5C54.4,7,61.2,0,69.6,0z"/>
			<ellipse class="st2" cx="69.6" cy="72" rx="15.1" ry="15.5"/>
		</g>
	</g>
</g>
</svg>
